<svg width="38" height="21" viewBox="0 0 38 21" fill="none" xmlns="http://www.w3.org/2000/svg">
<path d="M0.904785 7.74427C0.904785 6.65716 1.86053 5.77589 3.03951 5.77589C4.21848 5.77589 5.17423 6.65716 5.17423 7.74427V13.2557C5.17423 14.3428 4.21848 15.2241 3.03951 15.2241C1.86053 15.2241 0.904785 14.3428 0.904785 13.2557V7.74427Z" fill="#B25BF6"/>
<path d="M7.32603 9.1615C7.32603 8.0744 8.28178 7.19312 9.46075 7.19312C10.6397 7.19312 11.5955 8.0744 11.5955 9.1615V11.8385C11.5955 12.9256 10.6397 13.8069 9.46075 13.8069C8.28178 13.8069 7.32603 12.9256 7.32603 11.8385V9.1615Z" fill="#B25BF6"/>
<path d="M13.7473 3.3351C13.7473 2.24799 14.703 1.36672 15.882 1.36672C17.061 1.36672 18.0167 2.24799 18.0167 3.3351V17.6649C18.0167 18.752 17.061 19.6333 15.882 19.6333C14.703 19.6333 13.7473 18.752 13.7473 17.6649V3.3351Z" fill="#B25BF6"/>
<path d="M20.1685 6.95692C20.1685 5.86981 21.1243 4.98854 22.3032 4.98854C23.4822 4.98854 24.438 5.86981 24.438 6.95692V14.0431C24.438 15.1302 23.4822 16.0115 22.3032 16.0115C21.1243 16.0115 20.1685 15.1302 20.1685 14.0431V6.95692Z" fill="#B25BF6"/>
<path d="M26.5898 2.54774C26.5898 1.46064 27.5455 0.579365 28.7245 0.579365C29.9035 0.579365 30.8592 1.46064 30.8592 2.54774V18.4523C30.8592 19.5394 29.9035 20.4206 28.7245 20.4206C27.5455 20.4206 26.5898 19.5394 26.5898 18.4523V2.54774Z" fill="#B25BF6"/>
<path d="M33.011 7.74427C33.011 6.65716 33.9668 5.77589 35.1457 5.77589C36.3247 5.77589 37.2804 6.65716 37.2804 7.74427V13.2557C37.2804 14.3428 36.3247 15.2241 35.1457 15.2241C33.9668 15.2241 33.011 14.3428 33.011 13.2557V7.74427Z" fill="#B25BF6"/>
</svg>
